<mxfile host="app.diagrams.net" agent="Mozilla/5.0 (Macintosh; Intel Mac OS X 10_15_7) AppleWebKit/537.36 (KHTML, like Gecko) Chrome/130.0.0.0 Safari/537.36" version="24.8.6">
  <diagram id="C5RBs43oDa-KdzZeNtuy" name="Page-1">
    <mxGraphModel dx="1026" dy="620" grid="1" gridSize="10" guides="1" tooltips="1" connect="1" arrows="1" fold="1" page="1" pageScale="1" pageWidth="827" pageHeight="1169" math="0" shadow="0">
      <root>
        <mxCell id="WIyWlLk6GJQsqaUBKTNV-0" />
        <mxCell id="WIyWlLk6GJQsqaUBKTNV-1" parent="WIyWlLk6GJQsqaUBKTNV-0" />
        <mxCell id="kt94EKIviCxTGvuwZxM9-4" value="" style="edgeStyle=orthogonalEdgeStyle;rounded=0;orthogonalLoop=1;jettySize=auto;html=1;" edge="1" parent="WIyWlLk6GJQsqaUBKTNV-1" source="kt94EKIviCxTGvuwZxM9-0" target="kt94EKIviCxTGvuwZxM9-2">
          <mxGeometry relative="1" as="geometry" />
        </mxCell>
        <mxCell id="kt94EKIviCxTGvuwZxM9-0" value="Start" style="ellipse;whiteSpace=wrap;html=1;" vertex="1" parent="WIyWlLk6GJQsqaUBKTNV-1">
          <mxGeometry x="350" y="50" width="120" height="80" as="geometry" />
        </mxCell>
        <mxCell id="kt94EKIviCxTGvuwZxM9-1" value="End" style="ellipse;whiteSpace=wrap;html=1;" vertex="1" parent="WIyWlLk6GJQsqaUBKTNV-1">
          <mxGeometry x="350" y="470" width="120" height="80" as="geometry" />
        </mxCell>
        <mxCell id="kt94EKIviCxTGvuwZxM9-5" value="" style="edgeStyle=orthogonalEdgeStyle;rounded=0;orthogonalLoop=1;jettySize=auto;html=1;" edge="1" parent="WIyWlLk6GJQsqaUBKTNV-1" source="kt94EKIviCxTGvuwZxM9-2" target="kt94EKIviCxTGvuwZxM9-3">
          <mxGeometry relative="1" as="geometry" />
        </mxCell>
        <mxCell id="kt94EKIviCxTGvuwZxM9-2" value="Number" style="shape=parallelogram;perimeter=parallelogramPerimeter;whiteSpace=wrap;html=1;fixedSize=1;" vertex="1" parent="WIyWlLk6GJQsqaUBKTNV-1">
          <mxGeometry x="350" y="160" width="120" height="60" as="geometry" />
        </mxCell>
        <mxCell id="kt94EKIviCxTGvuwZxM9-7" value="" style="edgeStyle=orthogonalEdgeStyle;rounded=0;orthogonalLoop=1;jettySize=auto;html=1;" edge="1" parent="WIyWlLk6GJQsqaUBKTNV-1" source="kt94EKIviCxTGvuwZxM9-3" target="kt94EKIviCxTGvuwZxM9-6">
          <mxGeometry relative="1" as="geometry" />
        </mxCell>
        <mxCell id="kt94EKIviCxTGvuwZxM9-3" value="tram = number/100&lt;div&gt;chuc = number%100/10&lt;/div&gt;&lt;div&gt;dvi = number%10&lt;/div&gt;&lt;div&gt;&lt;br&gt;&lt;/div&gt;" style="rounded=0;whiteSpace=wrap;html=1;" vertex="1" parent="WIyWlLk6GJQsqaUBKTNV-1">
          <mxGeometry x="340" y="280" width="140" height="60" as="geometry" />
        </mxCell>
        <mxCell id="kt94EKIviCxTGvuwZxM9-8" value="" style="edgeStyle=orthogonalEdgeStyle;rounded=0;orthogonalLoop=1;jettySize=auto;html=1;" edge="1" parent="WIyWlLk6GJQsqaUBKTNV-1" source="kt94EKIviCxTGvuwZxM9-6" target="kt94EKIviCxTGvuwZxM9-1">
          <mxGeometry relative="1" as="geometry" />
        </mxCell>
        <mxCell id="kt94EKIviCxTGvuwZxM9-6" value="dvi.chuc.tram" style="shape=parallelogram;perimeter=parallelogramPerimeter;whiteSpace=wrap;html=1;fixedSize=1;" vertex="1" parent="WIyWlLk6GJQsqaUBKTNV-1">
          <mxGeometry x="350" y="370" width="120" height="60" as="geometry" />
        </mxCell>
      </root>
    </mxGraphModel>
  </diagram>
</mxfile>
